<?xml version="1.0" encoding="iso-8859-1"?>
<!-- Generator: Adobe Illustrator 18.0.0, SVG Export Plug-In . SVG Version: 6.00 Build 0)  -->
<!DOCTYPE svg PUBLIC "-//W3C//DTD SVG 1.1//EN" "http://www.w3.org/Graphics/SVG/1.1/DTD/svg11.dtd">
<svg version="1.1" id="Capa_1" xmlns="http://www.w3.org/2000/svg" xmlns:xlink="http://www.w3.org/1999/xlink" x="0px" y="0px"
	 viewBox="0 0 366.97 366.97" style="enable-background:new 0 0 366.97 366.97;" xml:space="preserve">
<g>
	<g>
		<path style="fill:#84BD93;" d="M68.003,260.128c-0.253-0.791-0.499-1.587-0.737-2.387
			C67.505,258.542,67.75,259.337,68.003,260.128z"/>
		<path style="fill:#84BD93;" d="M62.392,233.678c-0.092-0.804-0.188-1.605-0.268-2.416C62.204,232.073,62.3,232.874,62.392,233.678
			z"/>
		<path style="fill:#84BD93;" d="M74.547,276.411c-0.35-0.714-0.711-1.42-1.049-2.145C73.836,274.991,74.197,275.696,74.547,276.411
			z"/>
		<path style="fill:#84BD93;" d="M65.605,251.648c-0.135-0.545-0.288-1.077-0.416-1.626
			C65.318,250.571,65.471,251.103,65.605,251.648z"/>
		<path style="fill:#84BD93;" d="M63.596,242.156c-0.121-0.697-0.22-1.409-0.332-2.112
			C63.376,240.747,63.474,241.458,63.596,242.156z"/>
		<path style="fill:#84BD93;" d="M90.925,300.782c0.571,0.634,1.13,1.281,1.716,1.9C92.054,302.063,91.495,301.416,90.925,300.782z"
			/>
		<path style="fill:#84BD93;" d="M70.599,267.513c-0.207-0.528-0.387-1.075-0.587-1.608
			C70.212,266.438,70.392,266.985,70.599,267.513z"/>
		<path style="fill:#84BD93;" d="M99.212,308.978c-0.604-0.531-1.225-1.044-1.816-1.59
			C97.988,307.934,98.608,308.446,99.212,308.978z"/>
		<path style="fill:#84BD93;" d="M76.24,238.096c1.298,29,10.126,54.594,25.162,73.648c9.144,7.585,19.651,13.352,31.47,18.352
			h101.227c38.518-16,63.601-47,69.92-92H76.24z M131.814,307.454c-1.421,2.3-3.881,3.566-6.401,3.566
			c-1.349,0-2.713-0.363-3.945-1.124c-21.082-13.034-35.607-33.893-42.006-60.323c-0.977-4.036,1.503-8.098,5.537-9.074
			c4.037-0.977,8.099,1.503,9.076,5.537c5.448,22.503,17.654,40.164,35.299,51.071C132.904,299.291,133.997,303.923,131.814,307.454
			z"/>
		<path style="fill:#84BD93;" d="M304.461,234.531c0.13-1.077,0.274-2.144,0.382-3.233
			C304.734,232.385,304.592,233.455,304.461,234.531z"/>
		<path style="fill:#84BD93;" d="M82.715,290.399c-0.368-0.533-0.742-1.061-1.101-1.602
			C81.973,289.339,82.347,289.866,82.715,290.399z"/>
		<path style="fill:#84BD93;" d="M78.202,283.286c-0.431-0.743-0.843-1.501-1.258-2.257
			C77.36,281.785,77.772,282.543,78.202,283.286z"/>
		<path style="fill:#84BD93;" d="M87.839,297.196c-0.576-0.703-1.151-1.408-1.71-2.128
			C86.689,295.789,87.263,296.492,87.839,297.196z"/>
	</g>
	<rect x="155.035" y="342.096" style="fill:#84BD93;" width="72" height="11"/>
	<path style="fill:#3F2D20;" d="M144.427,145.505c0,13.792,6.859,20.978,12.37,26.751c4.767,4.994,8.21,8.602,8.21,16.371
		c0,4.152,3.366,7.517,7.517,7.517c4.152,0,7.517-3.365,7.517-7.517c0-13.793-6.859-20.979-12.369-26.752
		c-4.767-4.994-8.211-8.602-8.211-16.37c0-7.77,3.444-11.378,8.212-16.372c5.511-5.774,12.368-12.96,12.368-26.752
		s-6.859-20.978-12.37-26.751c-4.766-4.994-8.21-8.601-8.21-16.369c0-7.769,3.444-11.376,8.211-16.37
		c5.512-5.774,12.369-12.958,12.369-26.749c0-4.152-3.365-7.517-7.517-7.517c-4.151,0-7.517,3.365-7.517,7.517
		c0,7.768-3.443,11.375-8.21,16.368c-5.511,5.774-12.37,12.959-12.37,26.751c0,13.791,6.859,20.976,12.37,26.75
		c4.767,4.994,8.21,8.602,8.21,16.37c0,7.77-3.443,11.377-8.21,16.371C151.286,124.526,144.427,131.712,144.427,145.505z"/>
	<path style="fill:#3F2D20;" d="M182.918,136.881c0,13.792,6.857,20.978,12.368,26.752c4.768,4.994,8.212,8.603,8.212,16.372
		c0,4.152,3.365,7.517,7.517,7.517c4.151,0,7.517-3.365,7.517-7.517c0-13.793-6.86-20.979-12.37-26.753
		c-4.767-4.994-8.21-8.601-8.21-16.371c0-7.768,3.443-11.376,8.21-16.369c5.511-5.774,12.37-12.96,12.37-26.753
		c0-13.793-6.86-20.978-12.37-26.752c-4.767-4.994-8.21-8.601-8.21-16.369c0-7.769,3.443-11.376,8.21-16.37
		c5.511-5.774,12.37-12.958,12.37-26.749c0-4.152-3.366-7.517-7.517-7.517c-4.152,0-7.517,3.365-7.517,7.517
		c0,7.768-3.444,11.376-8.21,16.368c-5.512,5.774-12.37,12.959-12.37,26.751c0,13.791,6.857,20.977,12.368,26.751
		c4.768,4.994,8.212,8.601,8.212,16.371s-3.445,11.379-8.212,16.372C189.776,115.905,182.918,123.09,182.918,136.881z"/>
	<path style="fill:#3F2D20;" d="M129.373,297.107c-17.645-10.908-29.851-28.568-35.299-51.071c-0.977-4.034-5.039-6.514-9.075-5.537
		c-4.034,0.977-6.514,5.039-5.537,9.074c6.398,26.43,20.924,47.289,42.006,60.323c1.232,0.76,2.597,1.124,3.946,1.124
		c2.519,0,4.98-1.265,6.401-3.566C133.997,303.923,132.904,299.291,129.373,297.107z"/>
	<path style="fill:#3F2D20;" d="M313.168,207.689H53.802c-4.152,0-7.517,3.365-7.517,7.517c0,29.633,7.233,56.945,20.918,78.984
		c13.596,21.897,33.399,38.2,57.464,47.392v17.872c0,4.152,3.366,7.517,7.517,7.517h102.603c4.151,0,7.517-3.365,7.517-7.517V341.58
		c24.065-9.191,43.866-25.493,57.463-47.391c13.686-22.039,20.919-49.351,20.919-78.984
		C320.685,211.054,317.319,207.689,313.168,207.689z M139.701,351.936v-8.32h87.568v8.32H139.701z M132.871,328.582
		c-42.782-14.968-69.07-54.158-71.385-105.859h243.998c-2.315,51.701-28.603,90.891-71.385,105.859H132.871z"/>
</g>
<g>
</g>
<g>
</g>
<g>
</g>
<g>
</g>
<g>
</g>
<g>
</g>
<g>
</g>
<g>
</g>
<g>
</g>
<g>
</g>
<g>
</g>
<g>
</g>
<g>
</g>
<g>
</g>
<g>
</g>
</svg>
